<svg width="1024" height="1245" viewBox="0 0 1024 1245" fill="none" xmlns="http://www.w3.org/2000/svg">
<path d="M538.516 1225.92C534.94 1232.11 533.152 1235.21 530.83 1236.27C528.716 1237.24 526.284 1237.24 524.17 1236.27C521.848 1235.21 520.06 1232.11 516.484 1225.92L398.653 1021.83C395.077 1015.64 393.289 1012.54 393.529 1010C393.748 1007.68 394.963 1005.58 396.859 1004.23C398.94 1002.75 402.516 1002.75 409.669 1002.75H645.331C652.484 1002.75 656.06 1002.75 658.141 1004.23C660.037 1005.58 661.252 1007.68 661.471 1010C661.711 1012.54 659.923 1015.64 656.347 1021.83L538.516 1225.92Z" fill="#B1C0DD"/>
<rect width="1024" height="1024" rx="65" fill="#B1C0DD"/>
<path d="M375.79 480.714C367.681 469.547 341.385 433.178 335.279 422.773C334.526 421.491 335.379 420 336.865 420C353.683 420 432.141 420 452.39 420C454.503 420 456.52 420.834 458.017 422.323C465.351 429.613 488.492 452.635 506.492 470.762C509.63 473.922 514.731 473.922 517.864 470.757C535.773 452.665 558.558 429.698 565.835 422.364C567.337 420.851 569.321 420.001 571.453 420.001L686.995 420.001C688.482 420.001 689.335 421.492 688.582 422.774C682.476 433.179 656.18 469.548 648.071 480.715C646.569 482.783 644.169 484.001 641.614 484.001H554.923C553.425 484.001 552.5 485.588 553.188 486.919L612.173 601.083C612.86 602.414 611.894 604.001 610.396 604.001H564.821C564.169 604.001 563.529 603.831 562.964 603.507C562.398 603.183 561.928 602.717 561.598 602.155L512.817 518.94C512.431 518.282 511.479 518.281 511.092 518.94L462.263 602.155C461.933 602.716 461.463 603.182 460.898 603.506C460.332 603.83 459.692 604 459.04 604H413.465C411.966 604 411 602.413 411.688 601.082L470.673 486.918C471.36 485.587 470.436 484 468.937 484H382.247C379.692 484 377.292 482.782 375.79 480.714Z" fill="#1A2C42"/>
<mask id="path-4-inside-1_515_7" fill="white">
<path d="M171 192H853V682C853 764.843 785.843 832 703 832H321C238.157 832 171 764.843 171 682V192Z"/>
</mask>
<path d="M71 62H953L753 322H271L71 62ZM953 682C953 820.071 841.071 932 703 932H321C182.929 932 71 820.071 71 682H271C271 709.614 293.386 732 321 732H703C730.614 732 753 709.614 753 682H953ZM321 932C182.929 932 71 820.071 71 682V62L271 322V682C271 709.614 293.386 732 321 732V932ZM953 62V682C953 820.071 841.071 932 703 932V732C730.614 732 753 709.614 753 682V322L953 62Z" fill="#1A2C42" mask="url(#path-4-inside-1_515_7)"/>
</svg>
